<svg width="30" height="30" viewBox="0 0 30 30" fill="none" xmlns="http://www.w3.org/2000/svg">
<path d="M17.1428 4.6875C17.1428 3.65039 16.1853 2.8125 15 2.8125C13.8147 2.8125 12.8571 3.65039 12.8571 4.6875V13.125H3.21427C2.029 13.125 1.07141 13.9629 1.07141 15C1.07141 16.0371 2.029 16.875 3.21427 16.875H12.8571V25.3125C12.8571 26.3496 13.8147 27.1875 15 27.1875C16.1853 27.1875 17.1428 26.3496 17.1428 25.3125V16.875H26.7857C27.971 16.875 28.9286 16.0371 28.9286 15C28.9286 13.9629 27.971 13.125 26.7857 13.125H17.1428V4.6875Z" fill="white"/>
</svg>
