<svg width="30" height="30" viewBox="0 0 30 30" fill="none" xmlns="http://www.w3.org/2000/svg">
<g clip-path="url(#clip0_6_14)">
<path d="M29.4233 5.07724C30.3061 4.28037 30.1655 3.09678 29.103 2.43467C28.0405 1.77256 26.4624 1.87802 25.5796 2.6749L15.0014 12.1964L4.4233 2.6749C3.54049 1.87802 1.96237 1.77256 0.899867 2.43467C-0.162633 3.09678 -0.303258 4.28037 0.579554 5.07724L11.7436 15.1261L0.579554 25.1749C-0.303258 25.9718 -0.162633 27.1554 0.899867 27.8175C1.96237 28.4796 3.54049 28.3741 4.4233 27.5772L15.0014 18.0558L25.5796 27.5772C26.4624 28.3741 28.0405 28.4796 29.103 27.8175C30.1655 27.1554 30.3061 25.9718 29.4233 25.1749L18.2592 15.1261L29.4233 5.07724Z" fill="white"/>
</g>
<defs>
<clipPath id="clip0_6_14">
<rect width="30" height="30" fill="white"/>
</clipPath>
</defs>
</svg>
